<svg width="22" height="22" viewBox="0 0 22 22" fill="none" xmlns="http://www.w3.org/2000/svg">
<g clip-path="url(#clip0_2142_1634)">
<path d="M11.3979 0.0591569C10.4052 0.651402 9.39617 1.34383 8.45569 2.08929L6.73091 0.457916C6.4674 0.275233 6.28438 0.30568 6.03764 0.423049C3.43084 2.44091 1.68211 4.73573 0.77037 7.46861C-0.141366 10.2015 -0.218023 13.3478 0.406729 17.0732C0.429247 17.2181 0.510216 17.3521 0.626638 17.4376L6.84925 21.8971C7.02604 22.0287 7.28284 22.0346 7.46538 21.9109C7.64744 21.7871 7.74326 21.543 7.69487 21.324C7.64792 21.0917 7.60623 20.8653 7.5679 20.6385L8.47245 21.3412C8.64589 21.4664 8.89311 21.4748 9.07277 21.3589C9.25244 21.243 9.35353 21.0097 9.31807 20.7951C9.28502 20.5201 9.52888 19.7201 10.1383 18.8342C10.753 17.9404 11.6877 16.9288 12.8352 16.0233C15.1306 14.2122 18.2481 12.8283 21.3743 13.3336C21.7187 13.3911 22.0613 13.0247 21.9913 12.6741L20.1061 3.54732C20.0538 3.28704 19.798 3.08668 19.5398 3.10485C18.3554 3.18244 16.6699 3.54879 14.8053 4.16313L12.1079 0.215812C11.8616 -0.0282558 11.6757 -0.041515 11.3979 0.059648V0.0591569ZM11.5244 1.29128L16.0222 7.88505C13.7455 9.07739 11.6326 10.5713 10.1546 12.5788C8.74842 14.4886 7.99431 16.894 8.17637 19.7712L7.38153 19.1465C7.17983 16.8669 7.4534 14.9115 8.16774 13.1946C9.10008 10.9543 10.7784 9.10047 13.1729 7.4858C13.4489 7.30066 13.4844 6.83659 13.2405 6.6097L9.27495 2.86176C9.99553 2.30193 10.7669 1.76174 11.5244 1.29128ZM6.35002 1.61245L12.0317 6.97458C9.80389 8.58975 8.13037 10.475 7.17887 12.7615C6.2839 14.9124 6.0501 17.4091 6.44345 20.249L1.44687 16.6656C0.883438 13.1607 0.975426 10.285 1.79326 7.83299C2.58713 5.4537 4.0805 3.45155 6.35002 1.61245ZM19.1507 4.29327L20.7739 12.1712C17.5251 11.9183 14.4546 13.3488 12.1755 15.1472C11.0491 16.1136 9.95624 17.1783 9.19111 18.2881C9.30849 16.3017 9.97924 14.6576 11.0175 13.2472C12.4644 11.2819 14.6495 9.77178 17.0542 8.57944C17.3349 8.44095 17.4422 8.02697 17.2655 7.76424L15.4731 5.14432C16.9152 4.6935 18.2045 4.40278 19.1507 4.29327ZM6.52777 4.96998L6.22354 5.50772C5.84888 5.36579 5.4608 5.29557 5.07369 5.33387C4.47816 5.39329 3.89605 5.76308 3.55157 6.37497C3.27177 6.96672 3.40065 7.5241 3.73746 8.00585C4.22711 8.77047 5.01907 9.20753 5.55519 9.94907C5.88289 10.4004 5.35253 10.8202 4.99703 10.86C4.71005 10.8885 4.31191 10.781 3.89796 10.5389C3.56786 10.3459 3.28902 9.95054 3.21332 9.61906C3.13762 9.28758 3.15966 9.11619 3.45863 8.95119C3.68476 8.83234 3.80598 8.53622 3.7298 8.28724C3.56451 7.92924 3.28136 7.85018 2.94263 7.97099C2.23116 8.36385 1.99352 9.19673 2.1478 9.87098C2.26949 10.4033 2.56941 10.891 2.99341 11.2504L2.70595 11.771L3.64452 12.3347L3.94875 11.797C4.32341 11.9389 4.71148 12.0092 5.0986 11.9709C5.69413 11.9114 6.27624 11.5416 6.62071 10.9298C6.89668 10.3439 6.7769 9.7767 6.44297 9.29887C5.92074 8.55292 5.11106 8.0142 4.61662 7.35566C4.25298 6.90092 4.79341 6.48743 5.17478 6.4447C5.46176 6.41622 5.8599 6.52377 6.27384 6.76587C6.60395 6.95886 6.88278 7.35419 6.95848 7.68567C7.03418 8.01715 7.01214 8.18854 6.71318 8.35354C6.44488 8.48122 6.32319 8.85788 6.46357 9.12503C6.60395 9.39218 6.97765 9.49432 7.22918 9.33423C7.94065 8.94136 8.17828 8.10849 8.02401 7.43423C7.90232 6.9019 7.6024 6.41425 7.17839 6.05478L7.47448 5.53423L6.52777 4.96998Z" fill="white"/>
</g>
<defs>
<clipPath id="clip0_2142_1634">
<rect width="22" height="22" fill="white"/>
</clipPath>
</defs>
</svg>
