<svg width="17" height="16" viewBox="0 0 17 16" fill="none" xmlns="http://www.w3.org/2000/svg">
<g clip-path="url(#clip0_1878_1773)">
<path d="M10.6334 3.33341C11.2846 3.46046 11.883 3.77892 12.3521 4.24804C12.8212 4.71716 13.1397 5.31559 13.2667 5.96675M10.6334 0.666748C11.9863 0.817039 13.2478 1.42286 14.2109 2.38475C15.174 3.34664 15.7814 4.60742 15.9334 5.96008M15.2667 11.2801V13.2801C15.2675 13.4657 15.2295 13.6495 15.1551 13.8196C15.0807 13.9898 14.9716 14.1425 14.8348 14.268C14.698 14.3935 14.5365 14.4891 14.3606 14.5486C14.1847 14.608 13.9983 14.6301 13.8134 14.6134C11.762 14.3905 9.79141 13.6895 8.06007 12.5667C6.44929 11.5432 5.08363 10.1775 4.06007 8.56675C2.93339 6.82755 2.23224 4.84741 2.01341 2.78675C1.99675 2.60239 2.01866 2.41659 2.07774 2.24116C2.13682 2.06574 2.23179 1.90454 2.35658 1.76783C2.48138 1.63112 2.63328 1.52189 2.8026 1.4471C2.97192 1.3723 3.15497 1.33359 3.34007 1.33341H5.34007C5.66361 1.33023 5.97727 1.4448 6.22258 1.65577C6.46789 1.86674 6.62812 2.15971 6.67341 2.48008C6.75782 3.12013 6.91437 3.74857 7.14007 4.35341C7.22977 4.59203 7.24918 4.85136 7.19601 5.10067C7.14284 5.34998 7.01932 5.57882 6.84007 5.76008L5.99341 6.60675C6.94244 8.27578 8.32438 9.65771 9.99341 10.6067L10.8401 9.76008C11.0213 9.58084 11.2502 9.45731 11.4995 9.40414C11.7488 9.35097 12.0081 9.37039 12.2467 9.46008C12.8516 9.68578 13.48 9.84233 14.1201 9.92675C14.4439 9.97243 14.7397 10.1356 14.9511 10.3851C15.1625 10.6346 15.2749 10.9531 15.2667 11.2801Z" stroke="#FBC60F" stroke-width="1.25" stroke-linecap="round" stroke-linejoin="round"/>
</g>
<defs>
<clipPath id="clip0_1878_1773">
<rect width="16" height="16" fill="white" transform="translate(0.600098)"/>
</clipPath>
</defs>
</svg>
