<svg width="22" height="22" viewBox="0 0 22 22" fill="none" xmlns="http://www.w3.org/2000/svg">
<g clip-path="url(#clip0_2134_1632)">
<path d="M9.61651e-07 11C7.06596e-07 13.9175 1.15872 16.7154 3.22184 18.7782C5.28455 20.8413 8.08252 22 11 22C13.9175 22 16.7155 20.8413 18.7782 18.7782C20.8413 16.7155 22 13.9175 22 11C22 9.06921 21.4918 7.17233 20.5262 5.5C19.5606 3.82767 18.1719 2.43902 16.5 1.47383C14.8277 0.508233 12.9308 -7.92856e-07 11 -9.61651e-07C8.08252 -1.2167e-06 5.28455 1.15872 3.22185 3.22184C1.15872 5.28455 1.2167e-06 8.08252 9.61651e-07 11ZM11.9656 5.59263L16.134 9.76105C16.4649 10.0919 16.5943 10.5745 16.4731 11.0265C16.352 11.4785 15.9988 11.8316 15.5468 11.9528C15.0948 12.0739 14.6126 11.9445 14.2814 11.6137L12.2968 9.61053L12.2968 15.4835C12.2968 15.9504 12.0479 16.3813 11.6439 16.6145C11.2399 16.8478 10.742 16.8478 10.3379 16.6145C9.93391 16.3813 9.68496 15.95 9.68496 15.4835L9.68496 9.63865L7.71199 11.6095C7.38117 11.9404 6.89857 12.0698 6.44658 11.9486C5.99459 11.8275 5.64143 11.4743 5.52026 11.0223C5.3991 10.5703 5.52853 10.0877 5.85936 9.75692L10.0278 5.5885C10.2846 5.3321 10.6377 5.19523 11.0004 5.21094L11.0422 5.21094C11.3883 5.21011 11.7208 5.34782 11.9656 5.59263Z" fill="white"/>
</g>
<defs>
<clipPath id="clip0_2134_1632">
<rect width="22" height="22" fill="white" transform="translate(22 22) rotate(-180)"/>
</clipPath>
</defs>
</svg>
