<svg width="22" height="22" viewBox="0 0 22 22" fill="none" xmlns="http://www.w3.org/2000/svg">
<g clip-path="url(#clip0_2134_1613)">
<path d="M22 11C22 8.08252 20.8413 5.28455 18.7782 3.22184C16.7155 1.15872 13.9175 0 11 0C8.08252 0 5.28455 1.15872 3.22184 3.22184C1.15872 5.28455 0 8.08252 0 11C0 12.9308 0.508233 14.8277 1.47383 16.5C2.43944 18.1723 3.82808 19.561 5.5 20.5262C7.17233 21.4918 9.06921 22 11 22C13.9175 22 16.7155 20.8413 18.7782 18.7782C20.8413 16.7155 22 13.9175 22 11ZM10.0344 16.4074L5.86598 12.2389C5.53515 11.9081 5.40571 11.4255 5.52688 10.9735C5.64804 10.5215 6.0012 10.1684 6.4532 10.0472C6.90519 9.92605 7.38737 10.0555 7.71861 10.3863L9.70316 12.3895V6.51647C9.70316 6.04959 9.9521 5.61868 10.3561 5.38545C10.7601 5.15222 11.258 5.15222 11.6621 5.38545C12.0661 5.61868 12.315 6.05 12.315 6.51647V12.3614L14.288 10.3905C14.6188 10.0596 15.1014 9.93019 15.5534 10.0514C16.0054 10.1725 16.3586 10.5257 16.4797 10.9777C16.6009 11.4297 16.4715 11.9123 16.1406 12.2431L11.9722 16.4115C11.7154 16.6679 11.3623 16.8048 10.9996 16.7891H10.9578C10.6117 16.7899 10.2792 16.6522 10.0344 16.4074Z" fill="white"/>
</g>
<defs>
<clipPath id="clip0_2134_1613">
<rect width="22" height="22" fill="white"/>
</clipPath>
</defs>
</svg>
