<svg width="10" height="10" viewBox="0 0 10 10" fill="none" xmlns="http://www.w3.org/2000/svg">
<g clip-path="url(#clip0_1829_727)">
<path d="M8.75 4.16675C8.75 7.08341 5 9.58341 5 9.58341C5 9.58341 1.25 7.08341 1.25 4.16675C1.25 3.17219 1.64509 2.21836 2.34835 1.5151C3.05161 0.811836 4.00544 0.416748 5 0.416748C5.99456 0.416748 6.94839 0.811836 7.65165 1.5151C8.35491 2.21836 8.75 3.17219 8.75 4.16675Z" stroke="#979797" stroke-linecap="round" stroke-linejoin="round"/>
<path d="M5 5.41675C5.69036 5.41675 6.25 4.8571 6.25 4.16675C6.25 3.47639 5.69036 2.91675 5 2.91675C4.30964 2.91675 3.75 3.47639 3.75 4.16675C3.75 4.8571 4.30964 5.41675 5 5.41675Z" stroke="#979797" stroke-linecap="round" stroke-linejoin="round"/>
</g>
<defs>
<clipPath id="clip0_1829_727">
<rect width="10" height="10" fill="white"/>
</clipPath>
</defs>
</svg>
