<svg width="101" height="42" viewBox="0 0 101 42" fill="none" xmlns="http://www.w3.org/2000/svg">
<g clip-path="url(#clip0_492_2277)">
<path d="M0 40.5401V37.3H0.93L1.49 39.51L2.03 37.3H2.97V40.5401H2.39V37.9901L1.78 40.5401H1.18L0.58 37.9901V40.5401H0Z" fill="#020303"/>
<path d="M10.23 38.94C10.23 38.61 10.28 38.33 10.37 38.11C10.44 37.94 10.54 37.8 10.66 37.67C10.78 37.54 10.91 37.44 11.06 37.38C11.25 37.29 11.47 37.25 11.72 37.25C12.17 37.25 12.54 37.4 12.81 37.69C13.08 37.99 13.22 38.4 13.22 38.93C13.22 39.45 13.08 39.86 12.81 40.16C12.54 40.46 12.18 40.6 11.73 40.6C11.27 40.6 10.91 40.45 10.64 40.16C10.37 39.86 10.23 39.46 10.23 38.94ZM10.88 38.92C10.88 39.29 10.96 39.57 11.12 39.76C11.28 39.95 11.49 40.04 11.73 40.04C11.98 40.04 12.18 39.95 12.34 39.76C12.5 39.57 12.58 39.29 12.58 38.91C12.58 38.54 12.5 38.26 12.35 38.08C12.2 37.9 11.99 37.81 11.73 37.81C11.47 37.81 11.27 37.9 11.11 38.09C10.95 38.27 10.88 38.55 10.88 38.92Z" fill="#020303"/>
<path d="M21.17 40.5401V37.85H20.26V37.3H22.7V37.85H21.8V40.5401H21.17Z" fill="#020303"/>
<path d="M29.86 40.5401V37.3H30.48V40.5401H29.86Z" fill="#020303"/>
<path d="M37.72 38.94C37.72 38.61 37.77 38.33 37.86 38.11C37.93 37.94 38.03 37.8 38.15 37.67C38.27 37.54 38.4 37.44 38.55 37.38C38.74 37.29 38.96 37.25 39.21 37.25C39.66 37.25 40.03 37.4 40.3 37.69C40.57 37.99 40.71 38.4 40.71 38.93C40.71 39.45 40.57 39.86 40.3 40.16C40.03 40.46 39.67 40.6 39.22 40.6C38.76 40.6 38.4 40.45 38.13 40.16C37.85 39.86 37.72 39.46 37.72 38.94ZM38.36 38.92C38.36 39.29 38.44 39.57 38.6 39.76C38.76 39.95 38.97 40.04 39.21 40.04C39.46 40.04 39.66 39.95 39.82 39.76C39.98 39.57 40.06 39.29 40.06 38.91C40.06 38.54 39.98 38.26 39.83 38.08C39.68 37.9 39.47 37.81 39.21 37.81C38.95 37.81 38.75 37.9 38.59 38.09C38.44 38.27 38.36 38.55 38.36 38.92Z" fill="#020303"/>
<path d="M47.97 40.5401V37.3H48.57L49.84 39.4701V37.3H50.41V40.5401H49.79L48.54 38.41V40.5401H47.97Z" fill="#020303"/>
<path d="M70.58 40.5401L69.48 37.3H70.15L70.93 39.7001L71.69 37.3H72.35L71.25 40.5401H70.58Z" fill="#020303"/>
<path d="M79.41 40.5401V37.3H80.04V40.5401H79.41Z" fill="#020303"/>
<path d="M87.4 40.5401V37.3H89.68V37.85H88.02V38.57H89.56V39.12H88.02V39.9901H89.74V40.5401H87.4Z" fill="#020303"/>
<path d="M97.39 40.5401L96.67 37.3H97.31L97.77 39.53L98.33 37.3H99.07L99.61 39.5601L100.08 37.3H100.7L99.96 40.5401H99.29L98.69 38.12L98.08 40.5401H97.39Z" fill="#020303"/>
<path d="M100.7 41.48H0V41.96H100.7V41.48Z" fill="#020303"/>
<path d="M19.07 13.2402C18.4 12.8702 17.61 12.6802 16.72 12.6802C14.86 12.6802 13.48 13.4002 12.58 14.8402C11.77 13.4002 10.47 12.6802 8.68 12.6802C7.01 12.6802 5.75 13.4002 4.87 14.8402V12.9602H0V26.8402H5.25V18.1702C5.25 17.0602 5.69 16.5102 6.57 16.5102C7.42 16.5102 7.85 17.0602 7.85 18.1702V26.8402H13.07V18.8202C13.07 17.3402 13.58 16.6002 14.59 16.6002C15.01 16.6002 15.31 16.7202 15.47 16.9502C15.64 17.1802 15.72 17.5902 15.72 18.1702V26.8502H21V17.4002C21 16.1702 20.85 15.2602 20.54 14.6802C20.24 14.0902 19.75 13.6102 19.07 13.2402Z" fill="#020303"/>
<path d="M57.7 8.3501L52.53 8.4301L52.45 12.9501H50.38V16.4701H52.45V20.8501L52.44 22.4701C52.44 24.0401 52.84 25.1901 53.62 25.9101C54.41 26.6301 55.64 26.9901 57.31 26.9901C58.34 26.9901 59.4 26.8901 60.47 26.6801V22.8001C59.87 22.9501 59.35 23.0201 58.92 23.0201C58.64 23.0201 58.37 22.9501 58.11 22.8201C57.84 22.6901 57.71 22.2801 57.71 21.5701V16.4501H60.47V12.9301H57.7V8.3501Z" fill="#020303"/>
<path d="M77.49 12.6802C75.22 12.6802 73.38 13.3702 71.97 14.7502C70.56 16.1302 69.85 17.8602 69.85 19.9302C69.85 21.8602 70.53 23.5402 71.88 24.9702C73.23 26.4002 75.06 27.1202 77.36 27.1202C79.69 27.1202 81.55 26.4302 82.96 25.0402C84.37 23.6502 85.07 21.9302 85.07 19.8502C85.07 17.7902 84.38 16.0802 82.99 14.7202C81.6 13.3602 79.77 12.6802 77.49 12.6802ZM78.98 22.5102C78.8 23.3902 78.28 23.8302 77.44 23.8302C76.84 23.8302 76.4 23.5702 76.1 23.0602C75.8 22.5502 75.65 21.5002 75.65 19.9002C75.65 18.5502 75.79 17.5702 76.08 16.9802C76.37 16.3902 76.82 16.0902 77.45 16.0902C78.13 16.0902 78.59 16.3802 78.86 16.9502C79.12 17.5202 79.25 18.4602 79.25 19.7602C79.26 20.7202 79.17 21.6302 78.98 22.5102Z" fill="#020303"/>
<path d="M100.26 14.7602C99.96 14.1502 99.46 13.6502 98.77 13.2602C98.07 12.8702 97.22 12.6802 96.21 12.6802C94.3 12.6802 92.97 13.4302 92.22 14.9202V12.9602H87.17V26.8402H92.62V18.5002C92.62 17.1202 93.11 16.4202 94.1 16.4202C94.44 16.4202 94.71 16.5202 94.93 16.7202C95.15 16.9202 95.26 17.3802 95.26 18.1002V26.8402H100.71V17.9602C100.7 16.4402 100.55 15.3802 100.26 14.7602Z" fill="#020303"/>
<path d="M67.37 17.62C64.8 17.62 62.71 15.53 62.69 12.97H62.27V26.85H67.72V17.6C67.6 17.61 67.49 17.62 67.37 17.62Z" fill="#020303"/>
<path d="M67.37 17.2601C64.99 17.2601 63.05 15.3201 63.05 12.9401C63.05 10.5601 64.99 8.62012 67.37 8.62012C69.75 8.62012 71.69 10.5601 71.69 12.9401C71.69 15.3201 69.75 17.2601 67.37 17.2601ZM67.37 11.3501C66.49 11.3501 65.78 12.0601 65.78 12.9401C65.78 13.8201 66.49 14.5301 67.37 14.5301C68.25 14.5301 68.96 13.8201 68.96 12.9401C68.96 12.0601 68.25 11.3501 67.37 11.3501Z" fill="#E22A2E"/>
<path d="M49 24.86C46.88 29.21 42.49 32.27 37.31 32.44C29.89 32.68 23.6 26.74 23.41 19.31C23.38 18.27 23.48 17.25 23.68 16.27C23.72 16.08 23.61 15.89 23.43 15.82C23.21 15.74 22.97 15.88 22.93 16.11C22.71 17.18 22.61 18.29 22.65 19.43C22.9 27.26 29.38 33.39 37.21 33.21C42.74 33.08 47.45 29.83 49.71 25.19C49.81 24.98 49.71 24.73 49.49 24.65C49.28 24.6 49.08 24.68 49 24.86Z" fill="#E22A2E"/>
<path fill-rule="evenodd" clip-rule="evenodd" d="M38.58 21.6399C38.03 21.8199 37.9 22.3799 37.54 22.9799C37.39 23.2399 37.27 23.4899 37.12 23.7399C37.04 23.8699 36.99 23.9799 36.91 24.1199C36.27 25.2099 37.02 25.3199 37.89 25.6199C38.34 25.7799 39.25 26.1699 39.71 26.0399C40.25 25.8899 40.54 25.2299 40.78 24.7499C40.94 24.4399 41.5 23.4299 41.56 23.1199C41.71 22.3199 40.9 22.2699 40.35 22.0799C39.93 21.9299 39 21.4999 38.58 21.6399Z" fill="#5A3288"/>
<path fill-rule="evenodd" clip-rule="evenodd" d="M34.88 19.9401C34.38 20.1001 34.08 20.7701 33.79 21.2301C32.56 23.1801 32.58 23.3001 34.04 24.0101C36 24.9601 35.89 24.8401 36.8 23.2601C36.98 22.9501 37.57 22.0201 37.65 21.6901C37.82 20.9301 37.05 20.7701 36.55 20.5301C36.17 20.3501 35.28 19.8101 34.88 19.9401Z" fill="#5A3288"/>
<path fill-rule="evenodd" clip-rule="evenodd" d="M32.14 17.3901C31.66 17.5101 31.29 18.2001 31.04 18.5601C30.8 18.9001 30.36 19.5701 30.19 19.9701C29.82 20.8501 30.37 21.0801 30.85 21.4001C32.81 22.7101 32.45 22.2401 33.78 20.1601C33.89 19.9801 34.1 19.6801 34.22 19.4701C34.73 18.5201 33.84 18.3601 32.89 17.6701C32.69 17.5301 32.45 17.3101 32.14 17.3901Z" fill="#E62B56"/>
<path fill-rule="evenodd" clip-rule="evenodd" d="M40.82 17.4101C40.33 17.5501 40.14 18.1301 39.88 18.6201C39.04 20.2401 38.52 20.6901 39.93 21.1601C42.03 21.8601 42.17 22.4501 43.11 19.0701C43.37 18.1501 43.02 18.0301 42.36 17.8201C41.99 17.7101 41.13 17.3201 40.82 17.4101Z" fill="#5A3288"/>
<path fill-rule="evenodd" clip-rule="evenodd" d="M37.81 16.04C37.24 16.18 36.96 16.76 36.65 17.11L35.7 18.37C35.14 19.2 36.05 19.48 36.3 19.61C38.04 20.56 38.29 20.62 39 19.35C39.34 18.74 40.15 17.56 39.96 17.07C39.84 16.74 38.06 15.98 37.81 16.04Z" fill="#E62B56"/>
<path fill-rule="evenodd" clip-rule="evenodd" d="M42.59 22.87C42.09 23.02 41.88 23.64 41.67 24.08C40.83 25.86 40.07 26.33 41.44 26.64C43.13 27.03 43.49 27.15 44.21 25.77C44.42 25.36 45.26 23.91 45.07 23.41C44.96 23.11 44.59 23.15 44.32 23.1C43.9 23.03 42.94 22.76 42.59 22.87Z" fill="#5A3288"/>
<path fill-rule="evenodd" clip-rule="evenodd" d="M36.19 25.79C35.66 25.99 35.26 26.96 34.87 27.59C34.74 27.79 34.49 28.03 34.62 28.36C34.75 28.69 35.6 28.91 36 29.04C36.51 29.22 37.12 29.5 37.65 29.18C37.88 29.04 38.47 28.34 38.63 28.1C38.85 27.78 39.53 27.15 39.23 26.71C39.06 26.47 38.14 26.23 37.78 26.11C37.32 25.96 36.67 25.61 36.19 25.79Z" fill="#5A3288"/>
<path fill-rule="evenodd" clip-rule="evenodd" d="M32.46 24.0301C32.05 24.1801 31.85 24.8201 31.66 25.2601C30.99 26.8801 30.96 26.8701 32.56 27.6401C34.04 28.3501 33.99 28.1601 34.82 26.7001C35.02 26.3501 35.58 25.6601 35.21 25.2001C35.08 25.0301 34.18 24.6501 33.89 24.5101C33.54 24.3401 32.87 23.8801 32.46 24.0301Z" fill="#E62B56"/>
<path fill-rule="evenodd" clip-rule="evenodd" d="M43.98 18.4201C43.54 18.6201 43.52 19.0901 43.37 19.6501C42.97 21.1901 42.31 21.9801 43.49 22.2201C45.42 22.6201 45.74 23.0101 46.06 19.7901C46.13 19.0701 46.1 18.6901 45.46 18.5901C45.08 18.5401 44.27 18.2901 43.98 18.4201Z" fill="#5A3288"/>
<path fill-rule="evenodd" clip-rule="evenodd" d="M28.95 21.2102C28.6 21.4102 28.47 21.9802 28.32 22.4702C28.19 22.8902 27.95 23.6702 28.08 24.1202C28.21 24.5702 28.7 24.7902 29.07 25.0402C30.43 25.9602 30.3 25.5302 30.88 24.0802C31.03 23.7002 31.45 23.0602 31.24 22.5802C31.11 22.2902 30.47 21.9502 30.17 21.7602C29.9 21.6002 29.28 21.0202 28.95 21.2102Z" fill="#E62B56"/>
<path fill-rule="evenodd" clip-rule="evenodd" d="M29.95 14.77C29.33 15.11 28.02 17.07 27.91 17.8C27.84 18.29 28.29 18.7 28.69 19.06C29.61 19.9 29.59 18.99 31.03 16.95C31.52 16.26 31.53 16.01 31.06 15.57C30.86 15.38 30.72 15.24 30.55 15.05C30.37 14.86 30.25 14.6 29.95 14.77Z" fill="#F49B23"/>
<path fill-rule="evenodd" clip-rule="evenodd" d="M38.18 29.5802C38.49 29.8402 39.19 29.9102 39.65 29.9802C40.74 30.1602 41.37 29.5802 42.12 28.6902C42.25 28.5302 43 27.8502 42.85 27.5002C42.76 27.2902 41.65 27.1802 41.34 27.1202C39.64 26.7802 39.96 27.3002 38.49 28.9002C38.32 29.0902 38.13 29.2102 38.18 29.5802Z" fill="#397BBD"/>
<path fill-rule="evenodd" clip-rule="evenodd" d="M32.6 10.73C31.76 11.11 30.98 11.69 30.28 12.33C29.54 13 29.55 13.25 30.47 14.07C30.64 14.22 30.77 14.4301 31.14 14.3501C31.55 14.2601 32.64 13.05 33.26 12.55C34.32 11.71 33.96 11.69 33.26 10.91C33.05 10.64 32.95 10.57 32.6 10.73Z" fill="#F49B23"/>
<path fill-rule="evenodd" clip-rule="evenodd" d="M47.57 23.5201C47.57 23.5501 47.57 23.5801 47.56 23.6201C47.49 24.1601 46.83 25.5701 46.35 26.3001C46.25 26.4601 46.15 26.5801 46.07 26.6601C45.69 27.0501 45.3 27.0401 44.65 27.0401C43.58 27.0501 44.39 26.3301 45.05 24.8501C45.24 24.4301 45.41 23.9001 45.64 23.6101C45.99 23.1501 46.45 23.3201 47.09 23.2601C47.39 23.2301 47.6 23.1401 47.57 23.5201Z" fill="#397BBD"/>
<path fill-rule="evenodd" clip-rule="evenodd" d="M42.44 13.82C42.13 13.9 41.96 14.4 41.8 14.77C41.37 15.75 40.69 16.56 41.55 16.88C41.93 17.02 42.31 17.14 42.68 17.27C43.7 17.64 43.71 16.67 43.81 15.47C43.85 14.98 43.94 14.37 43.57 14.17C43.43 14.08 42.55 13.79 42.44 13.82Z" fill="#5A3288"/>
<path fill-rule="evenodd" clip-rule="evenodd" d="M40.6 13.0601C40.17 13.1801 39.11 14.2601 38.8 14.6001C38.01 15.4901 38.56 15.5301 39.86 16.1701C40.41 16.4401 40.72 16.1601 40.94 15.7701C41.14 15.4001 41.32 15.0501 41.52 14.6801C41.65 14.4301 42.14 13.7301 41.78 13.4801C41.69 13.4201 41.34 13.2701 41.23 13.2201C41.02 13.1101 40.87 12.9901 40.6 13.0601Z" fill="#5A3288"/>
<path fill-rule="evenodd" clip-rule="evenodd" d="M47.96 18.96C48.06 19.78 48.1 20.9 47.87 22.2C47.84 22.26 47.81 22.31 47.78 22.36C47.56 22.65 47.04 22.62 46.61 22.63C46.03 22.64 45.95 22.36 46.07 21.73C46.15 21.3 46.23 20.89 46.29 20.45C46.34 20.05 46.34 19.4 46.45 19.07C46.62 18.56 47 18.77 47.55 18.7C47.58 18.7 47.61 18.69 47.64 18.69C47.81 18.68 47.95 18.8 47.96 18.96Z" fill="#397BBD"/>
<path fill-rule="evenodd" clip-rule="evenodd" d="M27.61 21.99C27.57 22.19 27.51 22.46 27.45 22.67C27.44 22.71 27.43 22.75 27.42 22.78C27.42 22.79 27.42 22.79 27.41 22.8C27.38 22.94 27.35 23.13 27.19 23.16C27.18 23.16 27.17 23.16 27.16 23.16C27.13 23.16 27.11 23.14 27.08 23.13L27.07 23.12C26.81 22.97 26.43 22.57 26.28 22.37C25.94 21.93 25.88 21.75 25.96 21.03C26.02 20.5 26.1 20.07 26.21 19.6C26.29 19.25 26.44 18.47 26.86 18.63L27.7 19.47C28.49 20.18 27.85 20.8 27.61 21.99Z" fill="#FAC508"/>
<path fill-rule="evenodd" clip-rule="evenodd" d="M40.23 12.8401C40.23 12.8501 40.22 12.8601 40.22 12.8701V12.8801C40.04 13.2501 39.38 13.7201 38.99 14.0901C38.55 14.5001 38 15.2301 37.39 14.8701C37.07 14.6801 36.63 14.4101 36.37 14.2001C35.92 13.8301 36.63 13.4201 36.89 13.2601C37.4 12.9501 38.64 12.2101 39.19 12.1601C39.46 12.1401 39.94 12.4601 40.15 12.6401C40.22 12.7001 40.26 12.7701 40.23 12.8401Z" fill="#E62B56"/>
<path fill-rule="evenodd" clip-rule="evenodd" d="M44.26 14.4299C44.01 14.6099 44.09 15.2699 44.07 15.6499C44.05 16.0799 43.95 16.5899 43.94 16.9899C43.93 17.5899 44.16 17.6999 44.6 17.7899C46 18.0999 46.45 18.3699 45.79 15.6099C45.7 15.2499 45.56 14.7799 45.34 14.6099C45.21 14.5099 44.39 14.3299 44.26 14.4299Z" fill="#5A3288"/>
<path fill-rule="evenodd" clip-rule="evenodd" d="M33.03 30.54C33.39 30.84 34.68 31.29 35.21 31.15C35.5 31.07 35.89 30.79 36.13 30.61C36.35 30.45 36.99 30.09 36.63 29.76C36.58 29.71 34.65 29.03 34.48 29.01C33.93 28.93 33.78 29.25 33.58 29.55C33.47 29.71 33.39 29.83 33.28 29.98C33.15 30.16 33.03 30.24 33.03 30.54Z" fill="#5A3288"/>
<path fill-rule="evenodd" clip-rule="evenodd" d="M30.99 27.59C30.73 27.74 30.7 28.27 30.65 28.64C30.53 29.66 30.9 29.64 31.9 30.13C32.34 30.35 32.59 30.44 32.87 30C33.04 29.73 33.25 29.42 33.39 29.14C33.64 28.67 33.25 28.47 32.93 28.32C32.6 28.16 32.3 28.04 31.99 27.87C31.75 27.75 31.27 27.43 30.99 27.59Z" fill="#E62B56"/>
<path fill-rule="evenodd" clip-rule="evenodd" d="M38.79 11.67L38.78 11.68L38.77 11.69C38.5 11.89 38.12 12.01 37.79 12.19C35.81 13.22 35.64 13.72 34.69 12.57C34.35 12.15 35.03 11.9 35.36 11.76C35.74 11.6 36.13 11.46 36.53 11.33C37.01 11.18 38.05 10.79 38.5 11.16C38.61 11.25 38.74 11.34 38.82 11.49V11.5C38.83 11.56 38.85 11.61 38.79 11.67Z" fill="#E62B56"/>
<path fill-rule="evenodd" clip-rule="evenodd" d="M44.87 27.4399C45.14 27.4299 45.3 27.7399 45.13 27.9499C44.73 28.4599 44 29.0799 43.75 29.2899C43.14 29.7899 42.32 30.3599 41.27 30.1499C41.2 30.1299 41.19 30.0899 41.2 30.0399V30.0299C41.31 29.7099 41.82 29.3899 42.02 29.1799L42.85 28.2999C43.05 28.0699 43.41 27.6299 43.83 27.5099C43.9 27.4899 44.44 27.4599 44.87 27.4399Z" fill="#397BBD"/>
<path fill-rule="evenodd" clip-rule="evenodd" d="M27.93 12.21C27.78 12.36 27.7 12.44 27.6 12.58C27.5 12.72 27.39 12.86 27.29 13.01C27.1 13.28 26.88 13.59 26.73 13.92C26.45 14.52 26.54 14.55 26.84 14.94C27.04 15.19 27.43 15.61 27.74 15.38L28.9 13.63C29.31 13.01 29.01 12.92 28.78 12.68C28.64 12.56 28.2 11.94 27.93 12.21Z" fill="#FAC508"/>
<path fill-rule="evenodd" clip-rule="evenodd" d="M30.47 27.86C30.45 28 30.36 29.09 30.36 29.09C30.21 29.47 28.98 28.46 28.82 28.2C28.57 27.81 28.23 26.5 28.46 25.98C28.48 25.92 28.53 25.9 28.65 25.94C28.93 26.06 29.17 26.23 29.37 26.37C29.62 26.54 29.96 26.71 30.16 26.88C30.45 27.11 30.55 27.37 30.47 27.86Z" fill="#E62B56"/>
<path fill-rule="evenodd" clip-rule="evenodd" d="M47.63 18.03C47.62 18.03 47.61 18.03 47.6 18.04H47.59C47.29 18.1 46.78 18.14 46.6 18.03C46.36 17.87 46.31 17.36 46.25 16.96C46.2 16.62 45.73 14.78 45.77 14.68C45.82 14.59 46.01 14.56 46.17 14.57C46.36 14.58 47.17 15.08 47.71 17.68C47.76 17.86 47.77 17.99 47.63 18.03Z" fill="#397BBD"/>
<path fill-rule="evenodd" clip-rule="evenodd" d="M35.51 31.33C35.81 31.71 37.21 31.72 37.87 31.51C38.24 31.4 38.59 31.26 38.92 31.1C39.25 30.94 39.75 30.77 39.74 30.46C39.57 30.36 38.84 30.27 38.58 30.21C37.3 29.93 37.38 30.1 36.45 30.73C36.23 30.88 35.65 31.12 35.51 31.33Z" fill="#5A3288"/>
<path fill-rule="evenodd" clip-rule="evenodd" d="M32.05 8.49994C32.09 8.67994 32.03 8.86994 31.89 8.99994C31.31 9.50994 29.98 10.5499 29.66 10.7599C29.49 10.8799 29.36 10.8899 29.28 10.8499C29.19 10.8099 29.14 10.7199 29.1 10.6399L29.07 10.5599C29.05 10.4999 29.04 10.4299 29.03 10.3699C29.01 10.1999 29.08 10.0399 29.21 9.91994L29.85 9.33994C30.01 9.21994 30.16 9.09994 30.31 8.99994C32.07 7.82994 31.96 8.09994 32.05 8.49994Z" fill="#FAC508"/>
<path fill-rule="evenodd" clip-rule="evenodd" d="M48.1 22.12C48.08 22.24 48.33 22.27 48.45 22.27C48.88 22.26 48.88 21.93 48.94 21.71C49.19 20.79 49.17 19.39 48.97 18.43C48.94 18.29 48.77 18.23 48.66 18.32C48.63 18.34 48.43 18.47 48.37 18.5C48.11 18.63 48.1 18.77 48.15 19.1C48.21 19.55 48.26 20.03 48.24 20.49C48.23 21.03 48.2 21.58 48.1 22.12Z" fill="#397BBD"/>
<path fill-rule="evenodd" clip-rule="evenodd" d="M37.71 9.58994C37.73 9.70994 37.65 9.82994 37.54 9.86994C37.01 10.0499 36.39 10.1499 35.9 10.3199C35.57 10.4399 35.31 10.5199 35 10.6399C34.38 10.8799 33.92 11.1099 33.92 10.3599V10.3499C33.92 10.3399 33.92 10.3299 33.92 10.3199C33.93 10.2399 33.97 10.1699 34.11 10.0899C34.89 9.67994 36.44 9.32994 37.46 9.34994C37.59 9.36994 37.69 9.46994 37.71 9.58994Z" fill="#F49B23"/>
<path fill-rule="evenodd" clip-rule="evenodd" d="M27.61 27.1801C27.6 27.2001 27.58 27.2201 27.57 27.2401C27.51 27.2901 27.42 27.3001 27.36 27.2401C27.22 27.1101 27.08 26.9501 27.02 26.8701C26.54 26.2801 25.88 24.5001 26.01 23.8801C26.03 23.7301 26.12 23.7801 26.19 23.8601C26.19 23.8601 26.19 23.8601 26.2 23.8701L26.21 23.8801C26.22 23.8901 26.22 23.8901 26.23 23.9101C26.26 23.9401 26.34 24.0501 26.38 24.1001C26.6 24.3701 26.83 24.5201 27.01 24.7301C27.37 25.0601 27.4 25.8801 27.48 26.3901C27.55 26.8601 27.74 26.9601 27.61 27.1801Z" fill="#F49B23"/>
<path fill-rule="evenodd" clip-rule="evenodd" d="M27.61 27.1802C27.6 27.2102 27.59 27.2302 27.57 27.2402C27.58 27.2202 27.59 27.2002 27.61 27.1802Z" fill="#F49B23"/>
<path fill-rule="evenodd" clip-rule="evenodd" d="M48.72 17.5401C48.72 17.6101 48.49 17.7401 48.42 17.7801C48.12 17.9401 48.01 17.8801 47.92 17.6701C47.85 17.3701 47.75 17.0001 47.75 17.0001C47.28 15.4001 46.83 14.8801 46.76 14.7301C46.72 14.6301 46.69 14.5401 46.73 14.5001C46.73 14.5001 46.73 14.4901 46.74 14.4901C46.76 14.4701 46.79 14.4401 46.83 14.4201L46.84 14.4101C46.84 14.4101 46.84 14.4101 46.85 14.4001L46.96 14.3301C47.03 14.2801 47.13 14.2901 47.2 14.3501C47.67 14.8201 48.68 16.6201 48.72 17.5401Z" fill="#397BBD"/>
<path fill-rule="evenodd" clip-rule="evenodd" d="M47.94 22.9602C47.96 22.9102 47.99 22.8802 48.04 22.8702C48.24 22.8302 48.68 22.8902 48.64 23.0202C48.44 23.6702 48.01 24.5502 47.82 24.9402C47.58 25.4202 47.15 26.3702 46.73 26.7502C46.68 26.7902 46.62 26.8002 46.56 26.7802C46.52 26.7602 46.47 26.7302 46.43 26.7102C46.39 26.6802 46.37 26.6402 46.38 26.5902C46.46 26.2702 46.74 25.8802 46.88 25.6202C47.06 25.2802 47.25 24.9002 47.41 24.5202C47.82 23.3802 47.88 23.1402 47.94 22.9602Z" fill="#397BBD"/>
<path fill-rule="evenodd" clip-rule="evenodd" d="M42.27 4.28005C42.84 4.14005 43.12 3.56005 43.43 3.21005L44.38 1.95005C44.94 1.12005 44.03 0.840054 43.78 0.710054C42.04 -0.239946 41.79 -0.299946 41.08 0.970054C40.74 1.58005 39.93 2.76005 40.11 3.25005C40.24 3.58005 42.01 4.34005 42.27 4.28005Z" fill="#E62B56"/>
<path fill-rule="evenodd" clip-rule="evenodd" d="M46.6 4.61011C47.22 4.27011 48.53 2.31011 48.64 1.58011C48.71 1.09011 48.26 0.680114 47.86 0.320114C46.94 -0.519886 46.96 0.390114 45.52 2.43011C45.03 3.12011 45.02 3.37011 45.49 3.80011C45.69 3.99011 45.83 4.13011 46 4.32011C46.18 4.52011 46.29 4.77011 46.6 4.61011Z" fill="#F49B23"/>
<path fill-rule="evenodd" clip-rule="evenodd" d="M43.95 8.65007C44.79 8.27007 45.57 7.69007 46.27 7.05007C47 6.38007 47 6.13007 46.07 5.32007C45.9 5.17007 45.77 4.96007 45.4 5.04007C44.99 5.13007 43.9 6.34007 43.28 6.84007C42.22 7.68007 42.58 7.70007 43.28 8.48007C43.49 8.73007 43.59 8.81007 43.95 8.65007Z" fill="#F49B23"/>
<path fill-rule="evenodd" clip-rule="evenodd" d="M39.65 6.12017C39.14 6.43017 37.9 7.17017 37.35 7.22017C37.12 7.24017 36.73 7.00017 36.49 6.82017L36.48 6.81017C36.47 6.81017 36.47 6.80017 36.46 6.80017C36.32 6.68017 36.32 6.50017 36.4 6.38017C36.64 6.03017 37.21 5.62017 37.56 5.30017C38 4.89017 38.55 4.16017 39.16 4.52017C39.48 4.71017 39.92 4.98017 40.18 5.19017C40.63 5.54017 39.92 5.95017 39.65 6.12017Z" fill="#E62B56"/>
<path fill-rule="evenodd" clip-rule="evenodd" d="M49.82 5.45017C49.67 5.78017 49.45 6.09017 49.26 6.36017C49.15 6.51017 49.05 6.65017 48.95 6.79017C48.84 6.94017 48.76 7.02017 48.62 7.17017C48.51 7.28017 48.37 7.24017 48.23 7.15017C48.09 7.08017 47.76 6.72017 47.57 6.51017C47.42 6.36017 47.35 6.19017 47.65 5.75017L48.81 4.00017C49.12 3.77017 49.51 4.19017 49.71 4.44017C50.01 4.82017 50.09 4.85017 49.82 5.45017Z" fill="#FAC508"/>
<path fill-rule="evenodd" clip-rule="evenodd" d="M47.44 9.37012L46.69 10.0401C46.54 10.1601 46.38 10.2701 46.24 10.3701C44.46 11.5601 44.59 11.2701 44.49 10.8601C44.45 10.6801 44.49 10.4901 44.62 10.3701C44.94 10.0601 45.39 9.82012 45.81 9.52012C46.3 9.18012 46.76 8.68012 47.19 8.54012C47.19 8.54012 47.19 8.54012 47.2 8.54012C47.3 8.51012 47.37 8.55012 47.41 8.64012C47.41 8.65012 47.42 8.66012 47.42 8.67012C47.51 8.90012 47.57 9.16012 47.44 9.37012Z" fill="#FAC508"/>
<path fill-rule="evenodd" clip-rule="evenodd" d="M42.63 9.06007C42.63 9.07007 42.63 9.07007 42.63 9.08007C42.63 9.10007 42.63 9.11007 42.63 9.13007C42.63 9.15007 42.61 9.17007 42.58 9.20007C42.58 9.20007 42.58 9.20007 42.57 9.20007C42.56 9.21007 42.54 9.22007 42.53 9.22007C41.76 9.67007 40.04 10.0601 38.98 10.0101C38.91 10.0101 38.86 9.96007 38.85 9.89007L38.82 9.69007C38.81 9.63007 38.85 9.56007 38.91 9.54007C39.46 9.34007 40.12 9.24007 40.65 9.05007C40.98 8.93007 41.24 8.85007 41.55 8.73007C42.19 8.49007 42.65 8.26007 42.63 9.06007Z" fill="#F49B23"/>
<path fill-rule="evenodd" clip-rule="evenodd" d="M51.57 6.50014C51.57 6.50014 51.57 6.51014 51.57 6.50014C51.56 6.51014 51.56 6.51014 51.56 6.52014C51.56 6.52014 51.56 6.52014 51.56 6.53014C51.51 6.61014 51.37 6.84014 51.22 7.07014L50.85 7.62014C50.83 7.66014 50.8 7.69014 50.78 7.72014C50.66 7.87014 50.53 7.69014 50.48 7.54014C50.48 7.53014 50.48 7.53014 50.47 7.52014C50.46 7.46014 50.44 7.42014 50.44 7.40014C50.35 7.01014 50.72 6.63014 50.95 6.24014C51.25 5.75014 51.33 5.53014 51.55 5.12014C51.59 5.04014 51.63 4.98014 51.67 4.94014C51.73 4.89014 51.82 4.86014 51.9 5.00014C52.08 5.43014 51.84 6.03014 51.57 6.50014Z" fill="#F49B23"/>
<path fill-rule="evenodd" clip-rule="evenodd" d="M25.59 13.1402C25.29 13.6302 25.21 13.8502 24.99 14.2602C24.95 14.3302 24.92 14.3802 24.89 14.4202C24.87 14.4502 24.85 14.4702 24.83 14.4702C24.75 14.5002 24.66 14.4102 24.63 14.2902C24.46 13.7002 24.97 12.8502 25.26 12.4202L25.71 11.7402C25.74 11.7002 25.76 11.6602 25.79 11.6302C25.86 11.5302 26.02 11.5702 26.05 11.6902C26.08 11.8002 26.11 11.9302 26.12 11.9702C26.2 12.3702 25.83 12.7502 25.59 13.1402Z" fill="#F49B23"/>
<path d="M95.36 31.46C94.34 32.4 93.49 33.54 92.14 34.08C91.95 34.15 91.67 34.21 91.53 34.12C91.38 34.02 91.31 33.74 91.29 33.53C91.2 32.55 91.77 31.83 92.32 31.11C92.44 30.95 92.54 30.77 92.59 30.54C92.1 30.87 91.61 31.19 91.13 31.53C90.83 31.75 89.38 32.69 88.94 32.93C88.65 33.09 88.39 33.29 88.09 33.43C87.65 33.63 87.2 33.89 86.74 33.94C86.25 34 85.5 34.11 84.94 33.38C84.58 32.93 84.72 32.17 85 31.65C85.19 31.3 85.6 30.66 86.01 30.19C86.49 29.66 87.03 29.08 87.95 28.74C88.31 28.61 88.83 28.45 89.29 28.4C89.61 28.36 89.98 28.42 90.28 28.54C90.62 28.68 90.69 29.05 90.44 29.32C90.1 29.67 89.71 29.97 89.3 30.24C88.65 30.67 87.98 31.08 87.31 31.48C86.87 31.74 86.4 31.95 85.99 32.25C85.83 32.36 85.64 33 86.19 32.99C87 32.89 87.68 32.5 88.43 32.14C89.13 31.8 89.87 31.32 90.57 30.89C90.88 30.7 91.8 30.09 91.96 29.98C92.49 29.63 92.99 29.25 93.52 28.91C93.81 28.72 94.05 28.28 94.5 28.62C94.75 28.81 94.73 29.46 94.44 29.86C93.99 30.47 93.51 31.05 93.06 31.65C92.91 31.85 92.78 32.06 92.66 32.27C92.61 32.36 92.51 32.52 92.56 32.57C92.6 32.65 92.79 32.56 92.88 32.51C93.05 32.41 93.21 32.27 93.37 32.15C93.68 31.9 94 31.66 94.29 31.4C94.58 31.13 94.86 30.85 95.13 30.56C95.64 30.02 96.11 29.44 96.64 28.92C96.86 28.7 97.43 29.15 97.4 29.58C97.38 29.89 97.22 30.2 97.09 30.49C96.83 31.04 96.54 31.57 96.27 32.11C96.27 32.12 96.08 32.63 96.16 32.69C96.33 32.76 96.6 32.58 96.81 32.49C97.81 32.04 98.51 31.25 99.08 30.36C99.2 30.18 99.1 29.88 99.16 29.65C99.24 29.35 99.33 29.01 99.53 28.81C99.66 28.68 100.06 28.7 100.25 28.81C100.6 29 100.79 29.38 100.62 29.77C100.44 30.18 100.2 30.57 99.93 30.92C99.51 31.47 99.11 32.06 98.59 32.5C97.96 33.05 97.26 33.57 96.51 33.91C95.56 34.35 94.83 33.66 95.03 32.6C95.13 32.21 95.25 31.84 95.36 31.46ZM86.79 30.93C86.79 30.96 86.93 30.89 86.97 30.87C87.72 30.39 88.47 29.9 89.21 29.41C89.23 29.39 89.25 29.38 89.25 29.31C89.22 29.24 89.15 29.28 89.1 29.29C88.85 29.36 88.59 29.4 88.36 29.52C87.73 29.83 87.1 30.17 86.79 30.93Z" fill="#F29120"/>
<path d="M78.74 30.1099C78.37 30.2999 77.97 30.4699 77.63 30.6999C77.15 31.0199 76.69 31.3599 76.26 31.7399C75.79 32.1499 75.36 32.6099 74.9 33.0299C74.44 33.4599 73.99 33.8999 73.49 34.2799C73.38 34.3599 72.99 34.2399 72.88 34.0999C72.44 33.5299 72.41 32.9299 72.8 32.2799C73.17 31.6599 73.49 31.0099 73.82 30.3799C73.85 30.3199 73.89 30.1899 73.84 30.1599C73.78 30.1499 73.71 30.2099 73.66 30.2499C73.16 30.5999 72.67 30.9499 72.17 31.2899C72.13 31.3199 72.03 31.3299 71.99 31.2799C71.89 31.1299 71.8 30.8499 71.87 30.7499C72.05 30.4999 72.3 30.2799 72.56 30.1099C73.06 29.7699 73.58 29.4599 74.11 29.1699C74.41 29.0099 74.73 28.8699 75.06 28.8099C75.45 28.7299 75.73 29.2599 75.52 29.7599C75.22 30.4599 74.84 31.1199 74.52 31.7999C74.41 32.0399 74.34 32.2999 74.25 32.5499C74.24 32.5699 74.25 32.6099 74.27 32.6299C74.31 32.6699 74.41 32.5899 74.46 32.5399C74.65 32.3599 74.83 32.1699 75.03 31.9999C76.03 31.0899 77.02 30.1699 78.05 29.2999C78.4 28.9999 78.85 28.7899 79.28 28.6299C79.63 28.4999 79.98 28.8299 80.01 29.1999C80.04 29.5799 79.68 30.0399 79.35 30.0699C79.16 30.0899 78.96 30.2399 78.85 30.2399C78.79 30.1999 78.75 30.1399 78.74 30.1099Z" fill="#F29120"/>
<path d="M80.03 33.5001C79.98 32.5001 80.46 31.7001 80.98 30.9201C81.11 30.7201 81.24 30.5201 81.36 30.3201C81.38 30.2901 81.41 30.2601 81.38 30.2101C81.36 30.1701 81.32 30.1801 81.3 30.2001C80.89 30.4001 80.47 30.5901 80.07 30.8101C79.72 31.0101 79.41 31.2701 79.06 31.4801C78.98 31.5301 78.82 31.5301 78.76 31.4801C78.7 31.4301 78.7 31.2801 78.71 31.1801C78.78 30.5301 79.39 30.3601 79.8 30.0601C80.51 29.5401 81.28 29.1001 82.05 28.6801C82.21 28.5901 82.57 28.6301 82.69 28.7501C82.87 28.9401 83.06 29.3101 82.98 29.4901C82.69 30.1601 82.27 30.7701 81.93 31.4201C81.78 31.7001 81.59 32.1301 81.6 32.3301C81.6 32.3601 81.63 32.4201 81.65 32.4301C81.75 32.4901 81.85 32.4401 81.92 32.3901C82.75 31.8701 83.57 31.3501 84.4 30.8301C84.49 30.7701 84.63 30.7001 84.74 30.7501C84.82 30.8701 84.77 31.0201 84.71 31.1101C84.43 31.4901 84.18 31.9301 83.82 32.2101C83.15 32.7301 82.42 33.1901 81.68 33.6301C81.37 33.8201 80.99 33.9201 80.63 34.0201C80.32 34.1201 80.01 33.8301 80.03 33.5001Z" fill="#F29120"/>
<path d="M84.44 26.78C84.52 27.47 83.98 28.01 83.61 27.91C83.41 27.85 83.16 27.55 83.15 27.34C83.1 26.65 83.48 26.21 84.04 26.31C84.23 26.35 84.4 26.57 84.44 26.78Z" fill="#F29120"/>
</g>
<defs>
<clipPath id="clip0_492_2277">
<rect width="100.7" height="41.96" fill="white"/>
</clipPath>
</defs>
</svg>
